# xmcd
#
# Track frame offsets: 
#        150
#        24005
#        55385
#        77520
#        99830
#        118652
#        141182
#        162045
#        180182
#        201105
#        226265
#        255320
#
# Disc length: 3534 seconds
#
# Revision: 2
# Processed by: cddbd v1.5.2PL0 Copyright (c) Steve Scherf et al.
# Submitted via: ExactAudioCopy v0.99pb3
#
DISCID=820dcc0c
DTITLE=Various Artist - Best of Technoline - Vol. 1 - CD 2
DYEAR=1992
DGENRE=Acid
TTITLE0=Technoline 5 - Time To Sweat
TTITLE1=Technoline 3 - Don't Give A Fuck (Remix)
TTITLE2=Technoline - Out Of Phase
TTITLE3=The Bleep - Fuck Me (Remix)
TTITLE4=Technoline - SX2 (Remix)
TTITLE5=The Voice - Venom
TTITLE6=Technoline 1 - Technological Terror (Remix)
TTITLE7=Technoline 4 - Dead By Dawn
TTITLE8=The Commando - Optimizer
TTITLE9=Technoline - Morbus Gravis (Remix)
TTITLE10=Technoline - Aaoouww (Remix)
TTITLE11=Outro - The End
EXTD=Label .........: !Hype\nCatalog# ......: 90 31132\nFormat .......
EXTD=: 2 x CD\nCountry .......: Germany\nReleased ......: 1992\nGenre
EXTD=.........: Electronic\nStyle .........: Techno, Acid
EXTT0=
EXTT1=
EXTT2=
EXTT3=
EXTT4=
EXTT5=
EXTT6=
EXTT7=
EXTT8=
EXTT9=
EXTT10=
EXTT11=
PLAYORDER=
